<svg id="Castle_by_the_River" data-name="Castle by the River" xmlns="http://www.w3.org/2000/svg" viewBox="0 0 483.84 294.48"><defs><style>.cls-1{fill:#231f20;}</style></defs><path class="cls-1" d="M115.2,47.52l23-23H69.12L23,70.56V182.88L49,208.8H115.2l23-23H69.12V47.52Z"/><path class="cls-1" d="M161.28,24.48V162.72l46.08,46.08h46.08l46.08-46.08V128.16l-23-23H230.4l-23,23h46.08v57.6H207.36V47.52l-23-23Z"/><path class="cls-1" d="M207.36,24.48h69.12l23,23V59l-46.08,46.08V47.52H207.36Z"/><path class="cls-1" d="M322.56,24.48V208.8h46.08V47.52l-23-23Z"/><path class="cls-1" d="M460.8,208.8h-23l-23-23v-57.6h-23l-23-23h46.08L460.8,151.2Z"/><path class="cls-1" d="M417.6,102.24,460.8,59V47.52l-23-23H368.64v23h46.08v54.72Z"/><path class="cls-1" d="M50,247.85H46.45a7.41,7.41,0,0,0-1.09-2.67,7.51,7.51,0,0,0-1.87-1.94,8.26,8.26,0,0,0-2.44-1.19,9.88,9.88,0,0,0-2.78-.39A8.83,8.83,0,0,0,33.49,243a9.19,9.19,0,0,0-3.4,3.94,16.88,16.88,0,0,0,0,12.75,9.24,9.24,0,0,0,3.4,3.94A8.83,8.83,0,0,0,38.27,265a9.54,9.54,0,0,0,2.78-.4,8.24,8.24,0,0,0,2.44-1.18,7.55,7.55,0,0,0,1.87-1.95,7.43,7.43,0,0,0,1.09-2.66H50a11.58,11.58,0,0,1-1.45,4,10.89,10.89,0,0,1-2.61,3,11.45,11.45,0,0,1-3.5,1.87,13.34,13.34,0,0,1-4.14.64,12.21,12.21,0,0,1-6.62-1.82,12.52,12.52,0,0,1-4.56-5.17,19.89,19.89,0,0,1,0-15.91,12.46,12.46,0,0,1,4.56-5.17,12.21,12.21,0,0,1,6.62-1.82,13.05,13.05,0,0,1,4.14.64,11.45,11.45,0,0,1,3.5,1.87,10.85,10.85,0,0,1,2.61,3A11.56,11.56,0,0,1,50,247.85Z"/><path class="cls-1" d="M57.17,267.85h-3.7l10.69-29.09h3.63l10.68,29.09H74.78l-8.69-24.49h-.23Zm1.36-11.36H73.42v3.12H58.53Z"/><path class="cls-1" d="M99.25,246a4.43,4.43,0,0,0-2.08-3.35,7.89,7.89,0,0,0-4.46-1.19,8.38,8.38,0,0,0-3.37.62,5.32,5.32,0,0,0-2.24,1.72,4.08,4.08,0,0,0-.81,2.49,3.5,3.5,0,0,0,.56,2,4.91,4.91,0,0,0,1.45,1.38,9.75,9.75,0,0,0,1.84.89,18.56,18.56,0,0,0,1.78.56l3,.8a26.16,26.16,0,0,1,2.54.82,12,12,0,0,1,2.68,1.43,7.38,7.38,0,0,1,2.13,2.31,6.73,6.73,0,0,1,.83,3.45,7.68,7.68,0,0,1-1.22,4.26,8.53,8.53,0,0,1-3.58,3,13.16,13.16,0,0,1-5.71,1.12,13.31,13.31,0,0,1-5.4-1,8.58,8.58,0,0,1-3.58-2.81,7.92,7.92,0,0,1-1.47-4.19h3.64a4.46,4.46,0,0,0,1.11,2.72,5.93,5.93,0,0,0,2.47,1.59,9.72,9.72,0,0,0,3.23.52,9.47,9.47,0,0,0,3.63-.66,6.17,6.17,0,0,0,2.54-1.85,4.37,4.37,0,0,0,.94-2.78,3.39,3.39,0,0,0-.81-2.35,5.92,5.92,0,0,0-2.13-1.48,22.3,22.3,0,0,0-2.86-1l-3.58-1a13.25,13.25,0,0,1-5.4-2.8,6.14,6.14,0,0,1-2-4.75,7.09,7.09,0,0,1,1.33-4.27,8.74,8.74,0,0,1,3.58-2.84,12.07,12.07,0,0,1,5-1,11.87,11.87,0,0,1,5,1,8.75,8.75,0,0,1,3.47,2.74,6.79,6.79,0,0,1,1.36,3.93Z"/><path class="cls-1" d="M107.58,241.88v-3.12H129.4v3.12h-9.15v26h-3.52v-26Z"/><path class="cls-1" d="M135.17,267.85V238.76h3.52v26h13.53v3.13Z"/><path class="cls-1" d="M158,267.85V238.76h17.56v3.12h-14v9.83h13.13v3.13H161.51v9.88h14.27v3.13Z"/><path class="cls-1" d="M193.8,267.85V238.76H204a10.77,10.77,0,0,1,5,1,7.05,7.05,0,0,1,2.94,2.8,8,8,0,0,1,1,3.89,6.43,6.43,0,0,1-.66,3.09,5.23,5.23,0,0,1-1.73,1.93,8,8,0,0,1-2.32,1.06v.28a5.7,5.7,0,0,1,2.68.94,6.85,6.85,0,0,1,2.26,2.44,7.69,7.69,0,0,1,.91,3.89,7.77,7.77,0,0,1-1,3.94,6.9,6.9,0,0,1-3.13,2.77,13.11,13.11,0,0,1-5.59,1Zm3.52-16.31h6.54a6.53,6.53,0,0,0,2.87-.62,5.18,5.18,0,0,0,2.05-1.76,4.67,4.67,0,0,0,.76-2.67,4.48,4.48,0,0,0-1.33-3.26,5.77,5.77,0,0,0-4.24-1.35h-6.65Zm0,13.18h7c2.3,0,3.94-.44,4.91-1.34a4.27,4.27,0,0,0,1.46-3.26,5.16,5.16,0,0,0-.76-2.73,5.49,5.49,0,0,0-2.14-2,6.76,6.76,0,0,0-3.3-.76h-7.16Z"/><path class="cls-1" d="M217.64,238.76h4l8.07,13.58h.34l8.07-13.58h4l-10.51,17.1v12h-3.52v-12Z"/><path class="cls-1" d="M257,241.88v-3.12h21.82v3.12H269.7v26h-3.52v-26Z"/><path class="cls-1" d="M284.63,267.85V238.76h3.52v13h15.51v-13h3.52v29.09h-3.52v-13H288.15v13Z"/><path class="cls-1" d="M314.55,267.85V238.76h17.56v3.12h-14v9.83H331.2v3.13H318.07v9.88h14.26v3.13Z"/><path class="cls-1" d="M350.36,267.85V238.76h9.83a11.77,11.77,0,0,1,5.59,1.16,7.47,7.47,0,0,1,3.24,3.17,9.8,9.8,0,0,1,1.05,4.59,9.64,9.64,0,0,1-1.05,4.56,7.42,7.42,0,0,1-3.22,3.12,12,12,0,0,1-5.55,1.13h-8V253.3h7.84a8.72,8.72,0,0,0,3.76-.68,4.31,4.31,0,0,0,2.07-1.94,6.51,6.51,0,0,0,.65-3,6.86,6.86,0,0,0-.65-3.06,4.55,4.55,0,0,0-2.09-2,8.52,8.52,0,0,0-3.8-.72h-6.19v26Zm13.69-13.07,7.16,13.07h-4.09l-7.05-13.07Z"/><path class="cls-1" d="M379.77,238.76v29.09h-3.52V238.76Z"/><path class="cls-1" d="M388.33,238.76,397,263.25h.34l8.64-24.49h3.69L399,267.85h-3.63l-10.69-29.09Z"/><path class="cls-1" d="M414.5,267.85V238.76h17.56v3.12H418v9.83h13.13v3.13H418v9.88h14.26v3.13Z"/><path class="cls-1" d="M438.74,267.85V238.76h9.83a11.84,11.84,0,0,1,5.6,1.16,7.5,7.5,0,0,1,3.23,3.17,9.68,9.68,0,0,1,1.06,4.59,9.53,9.53,0,0,1-1.06,4.56,7.42,7.42,0,0,1-3.22,3.12,12,12,0,0,1-5.55,1.13h-8V253.3h7.84a8.69,8.69,0,0,0,3.76-.68,4.31,4.31,0,0,0,2.07-1.94,6.51,6.51,0,0,0,.65-3,6.86,6.86,0,0,0-.65-3.06,4.55,4.55,0,0,0-2.09-2,8.5,8.5,0,0,0-3.79-.72h-6.2v26Zm13.69-13.07,7.16,13.07H455.5l-7-13.07Z"/></svg>