<svg id="Layer_1" data-name="Layer 1" xmlns="http://www.w3.org/2000/svg" viewBox="0 0 437.76 184.32"><defs><style>.cls-1{fill:#231f20;}</style></defs><path class="cls-1" d="M833.7,428.66l23-23H787.62L741.54,451.7V564l25.92,25.92H833.7l23-23H787.62V428.66Z" transform="translate(-741.54 -405.62)"/><path class="cls-1" d="M879.78,405.62V543.86l46.08,46.08h46.08L1018,543.86V509.3l-23-23H948.9l-23,23h46.08v57.6H925.86V428.66l-23-23Z" transform="translate(-741.54 -405.62)"/><path class="cls-1" d="M925.86,405.62H995l23,23v11.52l-46.08,46.08v-57.6H925.86Z" transform="translate(-741.54 -405.62)"/><path class="cls-1" d="M1041.06,405.62V589.94h46.08V428.66l-23-23Z" transform="translate(-741.54 -405.62)"/><path class="cls-1" d="M1179.3,589.94h-23l-23-23V509.3h-23l-23-23h46.08l46.08,46.08Z" transform="translate(-741.54 -405.62)"/><path class="cls-1" d="M1136.1,483.38l43.2-43.2V428.66l-23-23h-69.12v23h46.08v54.72Z" transform="translate(-741.54 -405.62)"/></svg>