<?xml version="1.0" standalone="no"?>
<!DOCTYPE svg PUBLIC "-//W3C//DTD SVG 20010904//EN"
 "http://www.w3.org/TR/2001/REC-SVG-20010904/DTD/svg10.dtd">
<svg version="1.0" xmlns="http://www.w3.org/2000/svg"
 width="360.000000pt" height="360.000000pt" viewBox="0 0 360.000000 360.000000"
 preserveAspectRatio="xMidYMid meet">
<metadata>
Created by potrace 1.14, written by Peter Selinger 2001-2017
</metadata>
<g transform="translate(0.000000,360.000000) scale(0.100000,-0.100000)"
fill="#000000" stroke="none">
<path d="M0 1800 l0 -1800 1800 0 1800 0 0 1800 0 1800 -1800 0 -1800 0 0
-1800z m1185 450 l-59 -60 -123 0 -123 0 0 -375 0 -375 182 0 182 0 -59 -60
-59 -60 -180 0 -180 0 -68 67 -68 67 0 306 0 305 122 122 123 123 185 0 184 0
-59 -60z m372 -2 l63 -62 0 -215 0 -215 63 62 63 62 62 0 63 0 -3 153 -3 152
-122 3 -123 3 0 59 0 60 187 0 187 0 58 -57 c52 -51 58 -62 58 -98 0 -37 -7
-46 -117 -157 l-118 -118 55 0 c53 0 56 -1 117 -62 l63 -62 0 -96 0 -95 -122
-122 -123 -123 -125 0 -125 0 -122 122 -123 123 0 372 0 373 62 0 62 0 63 -62z
m865 5 l58 -57 0 57 0 57 187 0 187 0 63 -62 c92 -91 91 -95 -54 -240 -65 -65
-121 -118 -125 -118 -5 0 -8 68 -8 150 l0 150 -120 0 -120 0 0 -155 0 -155
122 0 121 0 124 -122 123 -122 0 -158 0 -158 -62 0 -62 0 -63 62 -63 62 0 153
0 153 -57 0 c-57 0 -58 0 -120 62 l-63 62 0 -277 0 -277 -125 0 -125 0 0 495
0 495 62 0 62 0 58 -57z"/>
<path d="M1620 1595 l0 -156 123 3 122 3 3 153 3 152 -126 0 -125 0 0 -155z"/>
</g>
</svg>
